<svg xmlns="http://www.w3.org/2000/svg" width="19.013" height="18.123" viewBox="0 0 19.013 18.123">
  <g id="Group_2120" data-name="Group 2120" transform="translate(72.011 -318)">
    <path id="Ellipse_851" data-name="Ellipse 851" d="M5.551-1A6.551,6.551,0,1,1-1,5.551,6.558,6.558,0,0,1,5.551-1Zm0,11.3A4.75,4.75,0,1,0,.8,5.551,4.755,4.755,0,0,0,5.551,10.3Z" transform="translate(-68.056 319)" fill="#292929"/>
    <path id="Path_7606" data-name="Path 7606" d="M48.1,165.769a.9.9,0,0,1-.781-.45,9.038,9.038,0,0,0-15.652,0,.9.9,0,0,1-1.56-.9A10.839,10.839,0,0,1,39.5,159h0a10.839,10.839,0,0,1,9.386,5.417.9.9,0,0,1-.779,1.351Z" transform="translate(-102 170.355)" fill="#292929"/>
  </g>
</svg>
