<svg xmlns="http://www.w3.org/2000/svg" width="23.209" height="20.022" viewBox="0 0 23.209 20.022">
  <g id="Octicons" transform="translate(-1 -1.537)">
    <g id="package" transform="translate(1 1.537)">
      <path id="Shape" d="M1,5.765V17.323a1.565,1.565,0,0,0,1.16,1.5L12.218,21.5a1.318,1.318,0,0,0,.774,0l10.057-2.677a1.565,1.565,0,0,0,1.16-1.5V5.765a1.565,1.565,0,0,0-1.16-1.5L12.991,1.572a2.166,2.166,0,0,0-.774,0L2.16,4.265A1.565,1.565,0,0,0,1,5.765ZM11.831,19.83,2.547,17.37V6.895l9.284,2.491ZM2.547,5.348,6.415,4.311,16.473,6.988,12.6,8.024ZM22.662,17.37l-9.284,2.46V9.386l3.095-.851V12.31l3.095-.82V7.715l3.095-.82Zm-3.095-11.2L9.51,3.491l3.095-.82L22.662,5.348l-3.095.82Z" transform="translate(-1 -1.537)" fill="#fff" fill-rule="evenodd"/>
    </g>
  </g>
</svg>
