<svg id="Group_5" data-name="Group 5" xmlns="http://www.w3.org/2000/svg" width="40.644" height="65.339" viewBox="0 0 40.644 65.339">
  <g id="Group_1" data-name="Group 1" transform="translate(11.4)">
    <path id="Path_1" data-name="Path 1" d="M168.9,169.751c2.336,0,4.563.969,5.131,3.41a7.6,7.6,0,0,1-2.494,7.1c-.962.921.819,1.548,1.484,1.751a4.547,4.547,0,0,0,1.266.214c3.467.086,5.893-4.008,5.893-7.227,0-7.907-8.192-8.628-11.565-8.628-9.274,0-16.6,5.39-16.6,12.868,0,10.562,16.279,24.47,16.279,36.753,0,6.036-3.9,9.548-8.714,9.548a9.142,9.142,0,0,1-2.382-.342l-5.329,4.68-.932.818c7.4,2.207,17.566.838,23.5-4.372A17.011,17.011,0,0,0,180,213.335c0-15.52-17.714-26.484-17.714-37.045C162.289,171.978,164.953,169.751,168.9,169.751Z" transform="translate(-150.939 -166.37)" fill="#1a1a1a"/>
  </g>
  <g id="Group_2" data-name="Group 2" transform="translate(16.24 5.28)">
    <path id="Path_2" data-name="Path 2" d="M173.713,184.491l-.5-.266a11.418,11.418,0,0,1,1.291-1.913l.433.36A10.874,10.874,0,0,0,173.713,184.491Z" transform="translate(-170.677 -182.311)" fill="#fff"/>
    <path id="Path_3" data-name="Path 3" d="M174.861,252.463l-.095-.556a14.469,14.469,0,0,0,4.3-1.492l.265.5A14.826,14.826,0,0,1,174.861,252.463Zm8.272-4.369-.4-.4a12.444,12.444,0,0,0,2.574-3.732l.516.226A13.005,13.005,0,0,1,183.133,248.094Zm3.623-8.548-.563-.006v-.105a18.9,18.9,0,0,0-.568-4.441l.548-.132a19.442,19.442,0,0,1,.584,4.573ZM184.2,230.6c-.2-.5-.409-1.017-.65-1.58-.373-.872-.784-1.769-1.221-2.665l.506-.247c.441.9.856,1.81,1.233,2.69.243.569.458,1.091.657,1.6Zm-4.043-8.349c-.724-1.271-1.509-2.573-2.4-3.981l.476-.3c.9,1.416,1.686,2.725,2.414,4Zm-4.969-7.857c-.389-.555-.782-1.108-1.176-1.66-.509-.715-1.018-1.429-1.516-2.15l.464-.32c.5.718,1,1.431,1.511,2.143q.592.831,1.178,1.664Zm-5.144-7.833a10.274,10.274,0,0,1-.82-4.047q0-.317.019-.634l.562.033q-.017.3-.018.6a9.706,9.706,0,0,0,.775,3.826Z" transform="translate(-168.011 -195.396)" fill="#fff"/>
    <path id="Path_4" data-name="Path 4" d="M167.807,352.714a12.251,12.251,0,0,1-2.255-.471l.168-.538a11.676,11.676,0,0,0,2.151.449Z" transform="translate(-165.552 -295.596)" fill="#fff"/>
  </g>
  <path id="Path_5" data-name="Path 5" d="M134.936,310.021l-6.258,5.472s-8.545-1.074-8.413-16.861v-4.214l3.11,1.153,1.164.432,1.168-.44,3.283-1.239V299.5a13.72,13.72,0,0,0,.845,5.383,10.22,10.22,0,0,0,2.573,3.748A5.377,5.377,0,0,0,134.936,310.021Z" transform="translate(-119.025 -251.941)" fill="#1a1a1a"/>
  <g id="Group_3" data-name="Group 3" transform="translate(0 30.478)">
    <path id="Path_6" data-name="Path 6" d="M137.861,268.7v.836l-1.417.527,0-.832,0-.952-.918.341-.856.321v6.388l.856-.321,3.384-1.278,1.072-.407v-6.369l-2.114.79Z" transform="translate(-128.655 -264.113)" fill="#ff9400"/>
    <path id="Path_7" data-name="Path 7" d="M116.523,266.962v6.4l1.254.465,3.206,1.188.856.317v-6.373l-.856-.321Zm2.822,6.4-1.413-.526v-.155l.008-.569,1.405.5Z" transform="translate(-116.523 -264.12)" fill="#ff9400"/>
    <path id="Path_8" data-name="Path 8" d="M124.3,261.848l-1.212-.5,1.471-.55,1.161.519,2.133-.8-1.266-.476-4.4-1.653-4.414,1.661-1.251.468,4.46,1.676,1.2.453,1.2-.449Z" transform="translate(-116.523 -258.383)" fill="#ff9400"/>
  </g>
</svg>
